<?xml version="1.0" standalone="no"?>
<!DOCTYPE svg PUBLIC "-//W3C//DTD SVG 20010904//EN"
 "http://www.w3.org/TR/2001/REC-SVG-20010904/DTD/svg10.dtd">
<svg version="1.0" xmlns="http://www.w3.org/2000/svg"
 width="829.000000pt" height="820.000000pt" viewBox="0 0 829.000000 820.000000"
 preserveAspectRatio="xMidYMid meet">

<g transform="translate(0.000000,820.000000) scale(0.100000,-0.100000)"
fill="#000000" stroke="none">
<path d="M8280 4105 l0 -4095 -4142 -3 -4143 -2 4148 -3 4147 -2 0 4100 c0
2255 -2 4100 -5 4100 -3 0 -5 -1843 -5 -4095z"/>
<path d="M6800 6036 c-321 -70 -892 -215 -1185 -301 -575 -169 -878 -269
-1344 -445 -593 -223 -1267 -527 -1692 -763 -555 -307 -1012 -656 -1194 -912
-56 -78 -121 -204 -141 -274 -11 -34 -15 -80 -12 -130 4 -96 36 -161 121 -249
114 -116 186 -151 482 -238 283 -82 311 -88 303 -61 -3 6 -63 51 -134 99 -164
111 -227 172 -268 257 -28 61 -31 74 -30 166 0 119 19 177 93 281 64 92 190
226 208 222 9 -2 28 -38 44 -83 172 -477 497 -802 942 -944 175 -56 244 -66
457 -66 170 1 207 4 290 24 188 46 383 136 543 252 37 27 72 49 77 49 5 0 11
-59 12 -137 l3 -138 1000 -3 c550 -1 1010 0 1023 3 l22 5 0 280 c0 217 -3 280
-12 280 -7 0 -329 2 -716 3 -684 2 -704 3 -718 21 -21 29 -21 523 0 552 14 18
35 19 638 24 l623 5 3 282 2 282 -614 3 c-588 3 -615 4 -635 22 -20 19 -21 27
-21 290 0 153 4 278 10 286 8 13 103 16 722 20 l713 5 3 274 c1 151 -2 279 -6
283 -5 5 -203 9 -441 9 -237 -1 -431 3 -431 7 0 4 307 110 683 236 593 198
734 249 692 245 -6 0 -57 -11 -115 -23z m-2904 -1178 c16 -13 83 -78 148 -145
66 -68 126 -123 133 -123 7 0 47 14 89 30 42 17 79 28 82 25 4 -3 5 -236 4
-518 -1 -282 -2 -520 -2 -529 0 -25 -31 -23 -96 8 -46 22 -59 24 -85 15 -35
-12 -38 -15 -113 -109 -111 -140 -285 -257 -451 -303 -159 -44 -356 -23 -511
54 -107 52 -153 84 -233 161 -120 116 -196 236 -239 381 -24 77 -52 239 -52
297 0 70 -23 55 710 476 206 119 409 235 450 259 85 49 124 54 166 21z"/>
<path d="M3185 5600 c-170 -31 -307 -82 -465 -173 -130 -75 -209 -137 -327
-260 -114 -119 -204 -243 -247 -341 -25 -57 -34 -106 -18 -106 4 0 57 27 117
61 365 200 897 446 1440 666 88 35 164 68 169 73 11 11 -16 24 -104 48 -196
53 -386 64 -565 32z"/>
</g>
</svg>
